<?xml version="1.0" standalone="no"?><!DOCTYPE svg PUBLIC "-//W3C//DTD SVG 1.1//EN" "http://www.w3.org/Graphics/SVG/1.1/DTD/svg11.dtd"><svg height="1000" node-id="1" sillyvg="true" template-height="1000" template-width="1287" version="1.1" viewBox="0 0 1287 1000" width="1287" xmlns="http://www.w3.org/2000/svg" xmlns:xlink="http://www.w3.org/1999/xlink"><defs node-id="32"></defs><g node-id="82"><path d="M 984.50 468.40 L 984.20 467.20 L 983.40 466.30 L 982.30 465.70 L 981.00 465.50 L 979.80 466.10 L 975.50 469.60 L 970.50 474.20 L 963.40 481.40 L 955.70 489.60 L 946.60 500.20 L 937.30 511.60 L 927.20 525.00 L 920.50 534.40 L 907.00 555.20 L 900.50 566.20 L 894.20 577.80 L 888.10 590.00 L 882.40 602.40 L 871.40 630.40 L 863.90 622.10 L 858.70 617.40 L 850.40 610.50 L 840.30 602.90 L 817.90 587.20 L 767.80 553.50 L 743.50 536.10 L 732.10 527.30 L 721.90 518.80 L 715.40 512.90 L 704.70 501.90 L 701.80 499.70 L 704.00 493.80 L 706.70 484.30 L 707.90 477.70 L 708.50 472.30 L 709.30 458.00 L 709.90 453.50 L 711.60 447.40 L 714.70 440.70 L 717.00 436.90 L 731.20 418.10 L 735.30 411.30 L 736.10 409.10 L 736.80 405.30 L 736.60 402.90 L 735.80 400.80 L 734.50 399.00 L 732.80 397.60 L 730.80 396.80 L 728.40 396.40 L 726.20 396.70 L 723.80 397.40 L 721.00 398.70 L 716.90 401.10 L 712.50 404.40 L 691.40 422.50 L 688.20 425.00 L 676.20 359.60 L 672.40 342.80 L 671.10 338.70 L 669.00 334.10 L 667.70 332.60 L 666.50 331.80 L 665.20 331.60 L 662.50 332.70 L 660.70 334.20 L 658.40 336.60 L 656.30 339.60 L 652.70 347.00 L 650.50 355.40 L 649.20 365.30 L 649.10 375.80 L 650.10 388.00 L 649.60 388.10 L 647.10 374.20 L 643.50 351.10 L 640.70 336.70 L 639.30 332.50 L 637.90 329.40 L 636.50 327.30 L 635.00 325.90 L 633.30 325.10 L 631.40 324.80 L 628.70 325.40 L 627.20 326.30 L 624.40 329.10 L 621.70 333.90 L 619.50 341.20 L 618.40 350.40 L 618.20 356.50 L 618.50 377.80 L 612.20 357.60 L 609.00 350.50 L 606.00 346.30 L 604.10 344.80 L 602.10 343.90 L 599.90 343.50 L 597.50 343.80 L 595.40 344.50 L 593.50 345.60 L 591.90 347.20 L 590.50 349.50 L 589.30 352.50 L 588.50 355.60 L 588.00 359.70 L 587.90 368.50 L 589.00 380.20 L 590.20 388.60 L 587.70 389.50 L 585.60 390.70 L 583.80 392.30 L 579.30 398.10 L 577.00 387.90 L 575.50 383.00 L 573.60 378.60 L 572.00 376.00 L 570.10 373.70 L 568.00 371.90 L 564.30 370.00 L 559.40 369.30 L 557.20 369.60 L 555.30 370.50 L 553.70 371.90 L 552.30 373.70 L 550.20 378.20 L 549.10 382.00 L 547.50 392.50 L 544.40 386.80 L 542.60 384.20 L 540.40 382.10 L 538.80 381.00 L 536.70 380.30 L 534.20 380.10 L 532.30 380.40 L 530.50 381.40 L 528.60 383.10 L 527.10 385.20 L 525.80 387.90 L 524.50 391.50 L 523.20 399.30 L 522.90 404.10 L 523.90 432.90 L 525.00 451.00 L 526.50 468.70 L 524.50 465.70 L 515.90 449.10 L 513.00 444.50 L 508.40 438.60 L 505.70 435.80 L 502.60 433.20 L 499.10 430.80 L 493.60 428.00 L 492.00 427.80 L 489.40 428.50 L 488.50 429.30 L 487.40 431.00 L 486.20 435.30 L 486.20 438.90 L 489.70 453.80 L 493.90 468.30 L 499.30 484.20 L 502.40 492.10 L 508.00 504.00 L 513.20 512.80 L 509.20 510.60 L 508.20 510.50 L 506.40 511.10 L 504.50 513.40 L 498.70 522.30 L 495.60 526.20 L 491.00 531.20 L 485.50 536.10 L 478.00 542.20 L 465.90 550.40 L 432.10 570.10 L 385.70 596.20 L 371.60 605.50 L 357.20 617.10 L 329.60 642.60 L 322.10 620.40 L 309.70 585.90 L 304.70 572.90 L 296.00 552.50 L 289.40 539.50 L 284.90 532.30 L 283.10 530.10 L 281.20 528.50 L 279.80 528.80 L 278.40 530.50 L 278.20 531.60 L 292.90 562.20 L 301.50 580.90 L 310.00 600.70 L 317.50 619.80 L 320.50 628.70 L 323.90 641.10 L 324.80 648.00 L 324.30 649.40 L 313.20 667.40 L 307.50 679.60 L 303.90 691.00 L 302.60 697.10 L 301.80 703.60 L 301.40 710.50 L 301.70 715.40 L 302.20 719.70 L 304.20 726.70 L 305.80 730.00 L 309.30 734.80 L 313.50 738.10 L 315.80 739.10 L 318.10 739.70 L 320.40 739.90 L 323.50 739.60 L 326.20 738.70 L 328.50 737.40 L 330.70 735.50 L 332.60 733.30 L 334.30 730.60 L 336.30 726.30 L 337.90 721.30 L 339.10 716.10 L 339.90 710.80 L 340.50 700.60 L 340.30 693.60 L 339.60 686.70 L 337.50 673.60 L 331.90 650.50 L 332.20 648.30 L 333.10 645.80 L 334.80 642.90 L 337.50 639.60 L 341.30 635.70 L 346.30 631.30 L 352.70 626.30 L 362.90 619.00 L 388.30 602.80 L 433.10 575.90 L 463.70 557.00 L 478.60 547.40 L 492.40 537.90 L 513.30 557.70 L 514.70 558.60 L 515.80 558.80 L 516.90 558.60 L 517.80 558.00 L 518.40 557.10 L 518.60 556.00 L 518.30 555.10 L 517.40 553.70 L 496.60 533.50 L 499.10 531.10 L 503.40 525.80 L 508.60 516.90 L 589.90 565.20 L 585.10 570.00 L 580.60 574.90 L 572.20 585.30 L 554.10 574.70 L 553.10 574.40 L 552.00 574.70 L 551.10 575.30 L 550.50 576.20 L 550.20 577.30 L 550.70 578.80 L 551.30 579.50 L 568.50 590.00 L 542.60 631.80 L 529.60 652.10 L 516.40 671.60 L 507.40 684.30 L 498.00 696.70 L 488.50 708.70 L 478.50 720.30 L 468.10 731.50 L 457.20 742.40 L 448.70 750.10 L 439.80 757.70 L 430.60 765.00 L 420.90 772.00 L 411.00 778.60 L 400.60 785.00 L 389.60 791.10 L 378.10 797.00 L 366.50 802.30 L 354.10 807.30 L 341.00 812.10 L 327.10 816.60 L 313.30 820.50 L 298.70 824.00 L 283.00 827.30 L 265.30 830.40 L 263.90 831.90 L 263.60 833.00 L 263.90 834.20 L 264.50 835.10 L 265.50 835.80 L 266.70 836.00 L 277.20 835.70 L 287.50 835.00 L 297.50 833.90 L 307.30 832.30 L 316.90 830.20 L 328.90 827.10 L 340.60 823.40 L 351.90 819.10 L 363.00 814.30 L 373.90 809.00 L 384.50 803.20 L 394.90 797.00 L 405.00 790.40 L 414.80 783.40 L 424.40 776.10 L 442.80 760.60 L 454.50 749.70 L 465.80 738.50 L 476.60 727.10 L 487.00 715.40 L 506.30 692.00 L 519.80 674.40 L 532.00 657.50 L 543.60 640.80 L 579.40 587.10 L 585.60 578.60 L 589.90 573.30 L 593.20 569.80 L 597.10 566.40 L 597.80 564.70 L 597.10 563.00 L 592.70 560.00 L 596.80 554.80 L 600.60 549.40 L 603.90 543.70 L 606.70 537.70 L 609.20 531.60 L 611.10 525.30 L 617.20 530.00 L 620.60 533.50 L 628.90 543.80 L 633.90 550.80 L 647.40 572.00 L 675.20 619.30 L 696.30 654.00 L 707.80 671.60 L 719.80 689.10 L 728.20 700.60 L 736.90 711.70 L 745.80 722.50 L 755.10 733.00 L 764.60 742.80 L 774.30 752.10 L 782.00 758.70 L 789.80 764.90 L 797.70 770.60 L 805.70 775.80 L 814.00 780.60 L 822.50 784.80 L 831.10 788.50 L 839.90 791.50 L 847.10 793.60 L 854.40 795.10 L 861.90 796.30 L 869.50 797.00 L 877.30 797.30 L 884.70 796.90 L 891.70 796.10 L 898.40 794.80 L 904.90 793.10 L 911.00 791.00 L 916.70 788.70 L 927.20 783.30 L 938.00 776.20 L 947.20 768.30 L 952.00 762.80 L 952.40 761.80 L 952.10 760.60 L 951.40 759.70 L 950.40 759.00 L 949.20 758.80 L 948.00 759.20 L 934.60 770.90 L 929.10 775.10 L 920.60 780.30 L 915.60 782.90 L 910.40 785.20 L 904.70 787.20 L 898.30 789.00 L 891.90 790.20 L 884.80 791.10 L 877.00 791.40 L 868.30 791.00 L 859.70 790.10 L 851.20 788.50 L 842.80 786.20 L 834.50 783.30 L 826.50 780.00 L 818.40 776.00 L 810.40 771.40 L 802.40 766.30 L 794.40 760.50 L 786.80 754.40 L 771.60 740.70 L 756.20 724.50 L 747.10 714.00 L 737.90 702.70 L 728.60 690.50 L 719.30 677.50 L 707.40 659.90 L 695.40 641.10 L 683.10 621.00 L 659.40 579.40 L 647.20 557.00 L 655.60 555.80 L 663.20 553.60 L 666.40 552.20 L 668.70 550.80 L 670.60 548.60 L 670.80 547.70 L 670.60 546.60 L 670.10 545.80 L 669.30 545.10 L 668.20 544.90 L 654.60 550.40 L 651.40 551.10 L 645.70 551.30 L 643.80 550.50 L 641.50 547.70 L 635.70 537.00 L 642.40 536.60 L 648.70 535.90 L 654.80 534.70 L 660.60 533.20 L 666.30 531.20 L 671.70 528.70 L 676.90 525.80 L 681.90 522.50 L 686.60 518.70 L 691.00 514.40 L 695.30 509.60 L 699.40 504.10 L 706.40 511.80 L 699.40 521.60 L 692.00 529.60 L 691.40 530.60 L 691.20 531.70 L 691.40 532.70 L 692.00 533.60 L 693.90 534.40 L 696.00 533.50 L 697.90 532.00 L 702.90 526.50 L 710.00 516.10 L 723.70 527.40 L 738.40 538.90 L 753.50 550.10 L 768.80 561.00 L 826.30 600.50 L 848.70 616.40 L 860.10 625.50 L 866.60 631.90 L 868.30 634.30 L 869.20 636.10 L 869.40 637.50 L 866.00 651.00 L 864.80 657.10 L 862.90 671.20 L 862.60 678.50 L 862.80 685.60 L 863.50 691.40 L 864.60 696.00 L 866.10 700.50 L 867.70 704.00 L 869.40 706.70 L 873.50 711.00 L 878.40 713.80 L 880.70 714.40 L 883.70 714.80 L 886.40 714.60 L 891.30 713.10 L 893.70 711.80 L 897.90 708.20 L 899.70 705.90 L 902.50 700.30 L 903.50 697.10 L 904.10 693.60 L 904.30 689.60 L 904.10 684.90 L 903.40 680.30 L 902.30 675.90 L 900.80 671.60 L 897.20 663.50 L 893.90 657.80 L 890.50 652.80 L 878.80 637.90 L 876.70 634.50 L 879.80 623.50 L 883.30 614.20 L 889.70 599.80 L 899.60 581.00 L 913.60 558.00 L 921.60 546.00 L 931.30 532.70 L 942.60 518.00 L 954.30 503.60 L 967.80 487.90 L 983.40 470.90 L 984.20 469.80 L 984.50 468.40 Z M 334.60 700.70 L 334.30 707.40 L 333.60 713.50 L 332.90 717.50 L 330.80 724.10 L 329.40 727.10 L 326.40 731.40 L 324.50 732.90 L 322.50 733.70 L 320.40 734.00 L 318.60 733.80 L 316.60 733.10 L 314.60 731.70 L 312.80 729.90 L 311.10 727.40 L 309.50 724.10 L 308.40 720.50 L 307.60 716.10 L 307.30 710.50 L 307.60 704.80 L 308.20 699.20 L 309.30 693.90 L 312.30 683.80 L 317.00 672.80 L 319.70 667.60 L 322.60 662.80 L 326.90 656.50 L 327.50 656.60 L 331.90 675.70 L 334.00 689.10 L 334.60 700.70 Z M 587.50 556.90 L 554.40 537.90 L 540.20 529.10 L 530.50 521.80 L 526.10 517.90 L 522.00 513.60 L 518.20 509.00 L 514.70 504.20 L 511.40 498.70 L 508.10 492.40 L 505.30 486.00 L 502.50 478.50 L 499.70 469.90 L 494.70 451.20 L 492.10 439.60 L 491.90 437.40 L 492.60 433.90 L 497.10 436.80 L 501.00 440.00 L 504.30 443.40 L 507.40 447.10 L 512.30 454.50 L 520.10 469.50 L 522.10 472.70 L 523.70 474.50 L 525.20 475.40 L 526.80 475.80 L 527.70 475.60 L 529.70 474.90 L 531.70 473.20 L 532.30 471.90 L 532.50 470.10 L 530.20 441.50 L 529.30 423.90 L 528.90 405.20 L 529.10 399.20 L 529.70 395.10 L 530.60 391.60 L 532.60 387.50 L 534.70 386.00 L 537.10 386.80 L 538.30 387.70 L 540.60 391.30 L 542.90 397.40 L 544.10 402.60 L 546.00 414.70 L 547.50 432.10 L 547.80 443.90 L 548.10 445.40 L 548.60 446.40 L 549.50 447.10 L 550.50 447.40 L 551.60 447.10 L 552.40 446.50 L 552.90 445.50 L 553.10 443.80 L 552.80 407.70 L 553.00 398.70 L 553.40 392.20 L 554.90 382.60 L 556.80 377.60 L 557.80 376.20 L 559.30 375.20 L 561.80 375.50 L 563.70 376.30 L 565.40 377.60 L 568.30 381.30 L 571.00 387.80 L 572.20 392.30 L 573.60 401.70 L 574.00 410.40 L 573.80 449.50 L 574.10 451.90 L 574.70 453.00 L 575.40 453.60 L 576.50 453.80 L 577.40 453.40 L 578.20 452.40 L 578.90 450.40 L 579.40 446.90 L 580.20 423.40 L 580.70 416.90 L 581.30 412.60 L 583.10 404.90 L 584.50 401.40 L 586.20 398.50 L 588.30 396.10 L 589.70 395.00 L 590.50 394.70 L 591.50 394.90 L 593.50 396.60 L 595.80 401.00 L 598.20 408.50 L 599.70 415.00 L 602.30 431.10 L 605.20 457.80 L 606.50 474.60 L 607.20 488.50 L 607.30 504.20 L 606.40 516.10 L 604.40 526.10 L 602.90 531.10 L 600.90 536.30 L 598.40 541.50 L 595.50 546.50 L 591.90 551.70 L 587.50 556.90 Z M 637.20 530.90 L 631.20 530.70 L 627.80 530.00 L 624.90 528.80 L 622.10 527.30 L 617.80 523.90 L 615.30 521.10 L 613.70 518.70 L 612.40 515.70 L 613.10 506.60 L 613.40 497.50 L 613.20 490.70 L 611.50 463.00 L 609.00 436.80 L 606.50 419.90 L 603.50 405.50 L 601.80 400.10 L 600.40 396.70 L 596.90 391.60 L 596.10 388.70 L 594.90 381.20 L 593.70 363.30 L 593.80 360.10 L 594.60 355.50 L 595.40 353.10 L 597.30 350.30 L 598.40 349.70 L 599.70 349.40 L 600.90 349.80 L 602.30 350.90 L 603.80 353.20 L 605.70 357.20 L 609.60 369.10 L 618.70 403.80 L 620.50 409.50 L 622.10 413.50 L 623.40 415.90 L 624.50 417.00 L 625.40 417.30 L 626.60 417.00 L 627.50 416.10 L 628.10 415.00 L 628.60 412.10 L 625.20 383.20 L 624.30 371.50 L 624.00 357.10 L 624.20 350.00 L 624.90 344.60 L 625.90 339.80 L 627.00 336.50 L 629.50 332.10 L 630.70 331.00 L 631.40 330.80 L 632.10 331.10 L 632.90 332.00 L 633.90 334.20 L 636.10 343.10 L 643.00 384.60 L 645.80 397.20 L 647.30 402.50 L 648.90 406.20 L 650.20 408.20 L 651.40 409.20 L 652.50 409.60 L 654.30 409.40 L 655.40 409.00 L 656.10 408.20 L 656.50 406.70 L 656.50 395.40 L 654.90 371.90 L 655.10 366.00 L 656.10 357.10 L 657.40 351.40 L 658.90 347.30 L 662.20 341.40 L 664.80 338.40 L 667.10 345.10 L 668.20 350.30 L 675.30 393.00 L 678.00 406.30 L 681.50 420.80 L 682.00 425.30 L 681.70 427.30 L 680.70 429.40 L 678.90 431.80 L 675.50 435.20 L 670.80 439.00 L 653.80 451.50 L 647.80 456.20 L 642.00 461.30 L 636.80 466.80 L 633.60 470.70 L 631.00 474.70 L 628.70 478.90 L 627.40 482.20 L 625.80 489.10 L 625.60 492.80 L 625.80 495.20 L 626.90 499.70 L 627.90 501.70 L 630.50 504.90 L 632.20 506.00 L 634.00 506.70 L 636.10 507.00 L 639.30 506.20 L 640.70 505.40 L 642.60 503.70 L 644.10 501.50 L 645.30 499.00 L 646.80 493.60 L 646.90 489.20 L 645.50 482.80 L 644.30 479.10 L 643.30 477.00 L 642.40 476.30 L 641.30 476.10 L 640.20 476.20 L 639.20 476.80 L 638.60 477.70 L 638.40 478.80 L 640.40 486.00 L 641.10 490.50 L 640.30 495.50 L 638.40 499.50 L 637.60 500.40 L 636.00 501.10 L 634.10 500.20 L 632.30 497.40 L 631.70 495.40 L 631.50 492.50 L 631.70 488.90 L 632.40 485.50 L 633.50 482.20 L 635.10 479.00 L 637.80 475.00 L 641.10 470.90 L 645.40 466.60 L 652.50 460.50 L 682.00 437.60 L 693.40 428.40 L 711.90 412.30 L 720.00 406.10 L 725.00 403.20 L 728.20 402.30 L 729.30 402.50 L 730.30 403.10 L 730.80 404.10 L 731.00 405.20 L 730.10 408.90 L 729.00 411.10 L 726.90 414.20 L 714.10 430.80 L 710.80 436.10 L 707.10 443.70 L 704.40 452.40 L 703.60 457.10 L 702.60 469.70 L 701.70 476.30 L 700.50 482.30 L 699.00 487.60 L 697.10 492.90 L 694.90 497.70 L 690.10 505.80 L 686.30 510.50 L 682.30 514.60 L 678.20 518.00 L 673.80 521.00 L 669.40 523.50 L 660.70 527.10 L 652.70 529.30 L 642.80 530.70 L 637.20 530.90 Z M 898.40 689.00 L 898.20 692.80 L 897.00 698.40 L 895.90 700.80 L 893.50 704.30 L 891.40 706.20 L 887.30 708.20 L 884.00 708.90 L 881.70 708.70 L 879.70 708.10 L 876.40 706.20 L 874.60 704.30 L 873.10 702.10 L 871.80 699.50 L 870.40 695.40 L 869.50 691.20 L 868.60 683.50 L 868.70 672.50 L 869.20 666.40 L 871.10 655.00 L 873.10 646.40 L 874.40 642.30 L 880.80 649.50 L 883.50 653.10 L 889.50 662.00 L 892.30 667.10 L 894.70 672.40 L 896.60 677.80 L 897.60 681.60 L 898.40 689.00 Z" fill="#000000" fill-rule="nonzero" group-id="1" node-id="35" stroke="none" target-height="511.2" target-width="720.9" target-x="263.6" target-y="324.8"></path><path d="M 872.50 382.50 L 880.20 374.80 L 886.50 366.10 L 891.60 356.80 L 895.40 346.70 L 897.60 336.30 L 898.40 325.40 L 898.20 319.70 L 897.60 314.00 L 896.50 308.40 L 895.00 302.90 L 893.10 297.50 L 890.80 292.30 L 888.10 287.20 L 885.00 282.40 L 881.60 277.70 L 877.90 273.40 L 873.80 269.30 L 869.40 265.60 L 864.70 262.20 L 859.70 259.10 L 854.40 256.50 L 848.70 254.20 L 843.00 252.50 L 836.90 251.20 L 830.60 250.40 L 823.90 250.10 L 817.60 250.30 L 811.50 251.10 L 805.60 252.30 L 799.90 254.10 L 794.40 256.20 L 789.10 258.80 L 784.10 261.70 L 779.30 265.10 L 774.80 268.80 L 770.50 272.80 L 766.70 277.10 L 763.10 281.70 L 759.90 286.50 L 757.00 291.60 L 754.60 296.90 L 752.50 302.50 L 750.90 308.10 L 749.70 313.90 L 749.00 319.90 L 748.70 326.00 L 749.00 332.00 L 749.60 337.80 L 750.80 343.60 L 752.30 349.10 L 754.30 354.60 L 756.60 359.90 L 759.40 364.90 L 762.50 369.80 L 766.00 374.40 L 769.70 378.60 L 773.90 382.60 L 778.30 386.40 L 783.00 389.70 L 788.00 392.70 L 793.20 395.20 L 798.80 397.40 L 804.50 399.10 L 810.40 400.40 L 816.60 401.20 L 823.00 401.50 L 831.10 401.00 L 839.30 399.70 L 840.30 400.20 L 849.20 408.50 L 853.40 412.20 L 858.80 416.00 L 866.80 420.40 L 871.40 422.20 L 876.30 423.60 L 881.50 424.50 L 887.20 424.80 L 892.20 424.50 L 894.10 423.90 L 895.80 422.90 L 896.60 421.90 L 897.20 420.70 L 897.40 418.90 L 897.10 417.80 L 896.00 416.40 L 889.80 410.70 L 883.50 403.20 L 877.60 393.50 L 872.50 382.50 Z M 885.30 417.40 L 879.70 416.50 L 874.80 415.20 L 870.40 413.50 L 862.50 409.30 L 854.80 403.20 L 845.50 393.90 L 842.50 391.80 L 841.50 391.50 L 831.60 393.10 L 823.10 393.60 L 817.20 393.30 L 811.40 392.50 L 805.70 391.30 L 800.20 389.50 L 794.80 387.20 L 789.70 384.50 L 784.80 381.40 L 780.10 377.80 L 775.80 373.70 L 771.80 369.30 L 768.30 364.70 L 765.20 359.70 L 762.50 354.60 L 760.30 349.20 L 758.60 343.60 L 757.40 337.90 L 756.70 332.10 L 756.50 326.20 L 756.70 320.70 L 757.30 315.40 L 758.30 310.20 L 759.80 305.10 L 761.60 300.10 L 766.30 290.80 L 772.30 282.20 L 779.50 274.80 L 783.60 271.40 L 787.90 268.40 L 792.40 265.70 L 797.10 263.40 L 802.10 261.40 L 807.20 259.90 L 812.50 258.80 L 818.10 258.10 L 823.80 257.80 L 829.70 258.10 L 835.60 258.90 L 841.30 260.20 L 846.80 262.00 L 852.20 264.20 L 857.40 266.90 L 862.30 270.10 L 866.90 273.70 L 871.30 277.70 L 875.30 282.10 L 878.80 286.80 L 882.00 291.80 L 884.60 297.00 L 886.80 302.40 L 888.50 307.90 L 889.80 313.70 L 890.50 319.50 L 890.70 325.40 L 890.40 331.50 L 889.80 337.00 L 888.70 342.00 L 885.70 351.40 L 883.80 355.40 L 880.70 361.10 L 877.40 365.90 L 874.00 370.20 L 866.10 378.70 L 864.50 380.60 L 864.20 381.50 L 866.10 387.70 L 870.70 397.30 L 877.30 407.30 L 885.40 416.90 Z" fill="#000000" fill-rule="nonzero" group-id="1" node-id="37" stroke="none" target-height="174.69998" target-width="149.70001" target-x="748.7" target-y="250.1"></path><path d="M 424.20 343.70 L 411.10 344.40 L 404.30 345.30 L 397.60 346.40 L 384.60 349.70 L 378.20 351.80 L 366.50 356.90 L 361.00 359.90 L 356.00 363.20 L 351.60 366.70 L 348.50 369.50 L 345.80 372.50 L 341.60 378.80 L 340.00 382.20 L 338.80 385.70 L 338.10 389.30 L 337.90 393.10 L 338.20 398.20 L 338.00 399.60 L 336.40 401.20 L 323.40 410.30 L 322.80 411.00 L 322.50 412.20 L 322.80 413.30 L 323.40 414.20 L 324.30 414.80 L 325.40 415.10 L 346.00 414.20 L 347.70 414.30 L 351.40 415.70 L 362.50 421.30 L 371.70 424.80 L 381.60 427.10 L 387.00 427.90 L 400.90 428.80 L 416.60 428.00 L 430.60 425.90 L 443.90 422.60 L 455.20 418.40 L 465.40 413.20 L 473.70 407.50 L 477.40 404.20 L 480.60 401.00 L 485.30 394.40 L 487.20 390.90 L 488.40 387.40 L 489.20 384.00 L 489.40 380.60 L 489.10 376.90 L 488.30 373.30 L 486.90 369.90 L 484.90 366.40 L 482.50 363.30 L 479.60 360.30 L 476.10 357.50 L 471.90 354.70 L 467.70 352.40 L 462.90 350.30 L 457.50 348.40 L 451.40 346.70 L 438.90 344.50 L 424.20 343.70 Z M 403.20 422.90 L 388.90 422.10 L 377.70 420.20 L 369.20 417.60 L 363.60 415.30 L 350.40 408.40 L 348.30 408.00 L 337.10 408.70 L 336.90 408.30 L 341.80 403.70 L 343.80 401.10 L 344.10 399.10 L 343.80 393.00 L 344.10 389.40 L 345.00 385.90 L 346.40 382.50 L 348.30 379.10 L 353.50 373.00 L 360.70 367.20 L 366.00 363.80 L 372.00 360.70 L 378.70 357.90 L 385.60 355.50 L 392.90 353.40 L 400.60 351.80 L 408.40 350.60 L 416.20 349.90 L 424.20 349.60 L 431.20 349.80 L 443.60 351.10 L 454.50 353.60 L 463.80 357.10 L 471.50 361.40 L 474.70 363.80 L 477.30 366.30 L 479.50 368.80 L 481.30 371.70 L 482.50 374.60 L 483.30 377.50 L 483.50 380.40 L 483.20 383.70 L 482.40 387.00 L 481.10 390.20 L 479.10 393.50 L 474.10 399.40 L 467.10 405.10 L 461.80 408.40 L 455.80 411.50 L 449.20 414.40 L 442.30 416.80 L 435.00 418.90 L 427.30 420.60 L 419.50 421.90 L 411.40 422.60 L 403.20 422.90 Z" fill="#000000" fill-rule="nonzero" group-id="1" node-id="39" stroke="none" target-height="85.099976" target-width="166.9" target-x="322.5" target-y="343.7"></path><path d="M 404.00 487.90 L 399.30 482.20 L 398.40 481.50 L 397.50 481.30 L 396.10 481.60 L 395.10 482.40 L 394.30 483.50 L 393.20 489.80 L 392.40 492.90 L 391.30 495.50 L 388.40 498.60 L 381.90 503.90 L 381.30 504.80 L 381.00 505.90 L 381.20 506.80 L 381.70 507.70 L 383.50 508.40 L 386.40 508.20 L 388.80 508.40 L 391.60 509.10 L 397.00 511.60 L 399.30 513.40 L 401.20 515.50 L 402.10 517.10 L 402.70 518.70 L 403.30 522.10 L 404.20 523.40 L 405.50 524.40 L 407.10 524.80 L 408.10 524.60 L 408.90 524.00 L 409.50 523.20 L 409.70 522.20 L 409.00 517.60 L 409.30 515.60 L 410.20 513.00 L 411.50 510.40 L 415.00 505.00 L 420.90 497.90 L 421.50 496.90 L 421.40 495.50 L 420.60 494.10 L 419.50 493.60 L 414.10 493.00 L 409.30 491.60 L 406.80 490.20 L 404.00 487.90 Z M 404.70 510.40 L 402.00 508.00 L 399.00 506.10 L 395.70 504.60 L 392.10 503.40 L 394.50 500.70 L 396.50 497.70 L 398.00 494.40 L 398.90 490.80 L 401.90 493.50 L 405.00 495.80 L 409.50 498.00 L 412.00 498.70 L 404.70 510.40 Z" fill="#000000" fill-rule="nonzero" group-id="1" node-id="41" stroke="none" target-height="43.5" target-width="40.5" target-x="381" target-y="481.3"></path><path d="M 584.70 278.70 L 583.10 272.40 L 580.50 258.70 L 580.00 257.60 L 579.30 256.80 L 578.00 256.60 L 577.00 256.90 L 576.10 257.90 L 573.60 262.70 L 570.80 266.20 L 568.60 267.70 L 567.00 268.40 L 560.10 269.40 L 557.30 270.40 L 556.40 271.50 L 556.30 272.30 L 556.70 273.40 L 558.00 274.90 L 563.10 279.50 L 566.30 284.30 L 568.80 289.80 L 569.00 291.30 L 568.30 294.50 L 568.50 295.50 L 569.90 296.80 L 570.90 297.00 L 572.40 296.30 L 577.30 290.10 L 579.70 288.10 L 580.90 287.30 L 582.30 286.90 L 584.50 286.90 L 586.00 285.80 L 586.90 283.80 L 586.90 282.20 L 584.70 278.70 Z M 573.80 285.40 L 566.60 274.50 L 571.80 272.40 L 574.90 270.10 L 576.40 268.40 L 579.20 281.50 L 573.80 285.40 Z" fill="#000000" fill-rule="nonzero" group-id="1" node-id="43" stroke="none" target-height="40.399994" target-width="30.600037" target-x="556.3" target-y="256.6"></path><path d="M 788.80 479.30 L 788.60 477.70 L 786.30 476.00 L 784.30 475.30 L 782.90 475.90 L 781.90 477.90 L 779.90 484.20 L 778.50 486.40 L 774.90 490.20 L 767.50 494.30 L 766.70 495.20 L 766.40 496.50 L 766.70 497.90 L 767.30 498.70 L 771.10 500.10 L 773.80 502.40 L 775.40 504.20 L 776.40 506.00 L 777.60 510.70 L 778.20 512.20 L 779.50 513.80 L 780.60 514.70 L 782.00 515.10 L 783.30 514.80 L 784.10 514.00 L 784.70 512.90 L 786.60 507.20 L 787.70 505.10 L 790.70 501.30 L 795.60 497.80 L 796.60 496.40 L 796.80 495.60 L 796.50 494.40 L 791.60 489.00 L 790.30 486.50 L 789.10 482.30 L 788.80 479.30 Z M 781.70 503.10 L 775.90 496.50 L 778.50 494.70 L 780.80 492.60 L 782.80 490.20 L 784.40 487.50 L 788.80 495.40 L 781.70 503.10 Z" fill="#000000" fill-rule="nonzero" group-id="1" node-id="45" stroke="none" target-height="39.799988" target-width="30.399963" target-x="766.4" target-y="475.3"></path><path d="M 623.50 634.40 L 617.90 628.40 L 615.70 623.90 L 614.30 619.60 L 613.60 618.40 L 612.10 617.80 L 611.00 617.90 L 609.80 618.90 L 608.10 624.10 L 605.90 628.30 L 602.30 632.40 L 599.50 634.80 L 598.60 635.90 L 598.30 636.90 L 598.60 637.80 L 599.30 638.70 L 603.30 641.70 L 604.90 643.50 L 606.40 645.60 L 609.20 651.30 L 610.00 651.90 L 610.90 652.10 L 612.40 651.40 L 613.00 650.70 L 615.50 644.90 L 617.00 642.30 L 619.80 639.10 L 622.60 637.00 L 623.40 635.50 L 623.50 634.40 Z M 610.60 643.50 L 604.70 636.40 L 607.50 633.60 L 609.70 630.50 L 611.50 627.00 L 617.10 634.90 L 610.60 643.50 Z" fill="#000000" fill-rule="nonzero" group-id="1" node-id="47" stroke="none" target-height="34.299988" target-width="25.200012" target-x="598.3" target-y="617.8"></path><path d="M 781.50 306.90 L 781.70 302.70 L 782.20 300.20 L 783.10 297.90 L 785.80 294.10 L 787.50 292.70 L 789.40 291.60 L 791.40 290.90 L 793.50 290.70 L 795.20 290.80 L 796.80 291.30 L 799.40 293.00 L 800.20 294.00 L 800.50 295.10 L 800.20 296.00 L 799.00 297.30 L 798.00 297.60 L 794.80 296.50 L 793.30 296.30 L 791.60 296.70 L 790.30 297.50 L 789.30 298.80 L 787.90 302.00 L 787.20 306.20 L 787.80 310.10 L 788.60 312.20 L 789.70 314.10 L 790.70 315.00 L 792.00 315.60 L 793.40 315.90 L 794.60 315.50 L 795.50 314.60 L 796.20 313.40 L 796.90 310.70 L 796.70 309.80 L 794.60 307.30 L 794.40 306.10 L 794.60 305.00 L 795.20 304.20 L 796.10 303.60 L 797.20 303.30 L 799.30 304.10 L 800.50 305.00 L 801.70 306.50 L 802.60 309.10 L 802.80 310.90 L 802.60 312.90 L 801.80 315.40 L 800.60 317.70 L 798.80 319.80 L 797.30 320.80 L 795.50 321.40 L 793.30 321.70 L 791.10 321.50 L 787.70 320.10 L 785.70 318.40 L 784.10 316.20 L 782.10 311.30 L 781.50 306.90 Z" fill="#000000" fill-rule="nonzero" group-id="1" node-id="49" stroke="none" target-height="31" target-width="21.299988" target-x="781.5" target-y="290.7"></path><path d="M 857.10 299.80 L 860.30 300.70 L 859.90 298.10 L 858.10 293.80 L 854.60 289.20 L 853.60 286.90 L 853.80 286.00 L 855.10 284.70 L 856.00 284.50 L 857.30 284.80 L 859.00 286.10 L 860.70 287.90 L 862.60 290.50 L 864.20 293.60 L 865.60 297.30 L 866.70 302.90 L 866.70 308.80 L 865.50 312.70 L 864.10 314.90 L 862.50 316.40 L 859.40 318.00 L 857.50 318.30 L 856.00 318.10 L 853.50 316.70 L 852.00 315.00 L 850.80 312.80 L 850.10 310.40 L 849.80 308.10 L 850.20 305.70 L 850.90 303.90 L 853.20 301.40 L 855.70 300.10 L 857.10 299.80 Z M 861.00 306.20 L 860.70 303.30 L 856.10 307.00 L 855.70 308.00 L 855.90 309.60 L 857.50 312.30 L 859.50 311.20 L 860.20 310.20 L 860.80 308.40 L 861.00 306.20 Z" fill="#000000" fill-rule="nonzero" group-id="1" node-id="51" stroke="none" target-height="33.799988" target-width="16.900024" target-x="849.8" target-y="284.5"></path><path d="M 810.90 350.00 L 810.70 353.80 L 809.30 359.30 L 807.00 363.50 L 803.50 366.70 L 799.60 368.30 L 796.70 368.20 L 795.30 367.80 L 792.90 365.50 L 792.10 363.90 L 791.50 361.10 L 792.00 359.00 L 792.50 357.90 L 794.20 356.50 L 795.30 356.30 L 796.40 356.50 L 797.90 357.90 L 798.20 359.10 L 797.70 360.80 L 797.90 362.00 L 798.80 362.40 L 799.30 362.20 L 802.10 360.00 L 803.60 357.70 L 804.80 353.80 L 805.10 351.10 L 804.80 348.20 L 804.20 346.10 L 803.30 344.30 L 802.30 343.10 L 801.20 342.40 L 800.20 342.10 L 796.80 342.80 L 795.00 342.10 L 794.50 341.30 L 794.30 340.30 L 794.50 339.20 L 796.40 337.60 L 797.70 337.10 L 800.20 336.70 L 802.20 336.90 L 805.30 338.20 L 807.10 339.90 L 808.60 341.80 L 809.60 344.00 L 810.40 346.20 L 810.90 350.00 Z" fill="#000000" fill-rule="nonzero" group-id="1" node-id="53" stroke="none" target-height="31.599976" target-width="19.400024" target-x="791.5" target-y="336.7"></path><path d="M 825.70 362.50 L 822.10 361.80 L 820.50 361.00 L 817.70 358.60 L 815.90 355.30 L 815.20 351.30 L 815.90 347.30 L 817.70 344.00 L 820.40 341.70 L 823.90 340.40 L 825.80 340.20 L 829.40 340.80 L 832.60 342.90 L 835.00 346.40 L 836.10 350.00 L 835.90 353.70 L 835.00 356.30 L 833.00 359.30 L 829.90 361.60 L 828.00 362.20 L 825.70 362.50 Z M 830.40 351.50 L 829.50 348.60 L 828.70 347.30 L 827.00 346.30 L 825.70 346.10 L 823.30 346.80 L 822.20 347.80 L 821.30 349.70 L 821.10 351.30 L 821.60 353.60 L 823.10 355.60 L 824.30 356.30 L 825.70 356.50 L 827.40 356.20 L 828.60 355.40 L 829.40 354.30 L 830.40 351.50 Z" fill="#000000" fill-rule="nonzero" group-id="1" node-id="55" stroke="none" target-height="22.299988" target-width="20.899963" target-x="815.2" target-y="340.2"></path><path d="M 846.40 347.20 L 849.20 346.70 L 851.30 347.10 L 853.20 348.10 L 854.80 349.40 L 855.90 351.10 L 856.60 353.00 L 856.60 357.20 L 855.60 360.40 L 854.20 362.20 L 852.70 363.50 L 850.90 364.30 L 848.20 364.40 L 845.50 363.20 L 844.20 362.10 L 841.90 358.60 L 841.10 356.50 L 840.30 350.30 L 840.60 346.80 L 841.50 343.30 L 843.00 340.10 L 844.60 337.60 L 846.00 336.20 L 847.20 335.50 L 848.50 335.20 L 850.30 335.90 L 850.90 336.70 L 851.20 337.70 L 850.50 339.50 L 848.30 341.50 L 847.40 343.20 L 846.40 347.20 Z M 849.00 352.70 L 847.70 353.10 L 846.60 354.10 L 847.50 356.70 L 848.30 357.70 L 849.60 358.70 L 850.50 356.90 L 850.90 355.00 L 850.70 353.80 L 850.20 353.10 L 849.00 352.70 Z" fill="#000000" fill-rule="nonzero" group-id="1" node-id="57" stroke="none" target-height="29.199982" target-width="16.299988" target-x="840.3" target-y="335.2"></path><path d="M 806.70 308.90 L 807.50 305.50 L 809.50 302.10 L 812.40 299.90 L 816.00 299.20 L 819.80 300.00 L 823.00 302.10 L 825.40 305.30 L 826.70 309.20 L 826.70 313.40 L 826.00 315.80 L 824.30 318.70 L 821.60 320.90 L 819.80 321.50 L 817.60 321.70 L 815.40 321.50 L 813.00 320.50 L 810.10 318.30 L 807.80 314.50 L 807.10 312.00 L 806.70 308.90 Z M 821.10 311.50 L 820.10 307.90 L 819.30 306.70 L 817.10 305.30 L 816.10 305.10 L 814.30 305.70 L 812.90 307.80 L 812.60 309.50 L 813.30 312.70 L 815.20 314.90 L 816.30 315.60 L 817.60 315.80 L 818.90 315.50 L 819.80 314.90 L 820.40 313.90 L 821.10 311.50 Z" fill="#000000" fill-rule="nonzero" group-id="1" node-id="59" stroke="none" target-height="22.5" target-width="20" target-x="806.7" target-y="299.2"></path><path d="M 829.30 310.70 L 829.60 307.80 L 830.90 303.90 L 832.40 301.70 L 834.00 300.40 L 837.20 299.10 L 840.60 299.10 L 843.30 300.30 L 844.80 301.70 L 845.90 303.40 L 847.00 306.80 L 847.20 309.00 L 846.90 311.60 L 846.00 314.10 L 844.50 316.40 L 842.60 318.20 L 839.60 319.60 L 836.00 319.70 L 833.40 318.60 L 831.90 317.20 L 830.90 315.60 L 830.10 314.00 L 829.30 310.70 Z M 841.40 308.50 L 840.80 306.50 L 839.70 305.00 L 838.80 304.70 L 838.00 304.90 L 836.40 306.30 L 835.50 307.90 L 835.20 310.00 L 835.40 311.40 L 835.90 312.70 L 836.70 313.60 L 837.80 313.90 L 838.90 313.60 L 840.40 312.10 L 841.40 308.50 Z" fill="#000000" fill-rule="nonzero" group-id="1" node-id="61" stroke="none" target-height="20.600006" target-width="17.900024" target-x="829.3" target-y="299.1"></path><path d="M 414.50 382.20 L 415.60 389.00 L 419.40 388.10 L 420.10 388.20 L 421.10 389.20 L 421.30 389.90 L 421.00 390.80 L 420.40 391.50 L 416.40 393.10 L 418.00 406.80 L 417.40 408.10 L 416.10 408.90 L 414.20 408.10 L 413.70 407.10 L 411.10 391.90 L 411.20 387.00 L 409.70 380.90 L 410.40 379.50 L 411.20 379.00 L 412.50 378.50 L 415.70 378.10 L 417.80 378.30 L 420.60 379.20 L 421.30 379.70 L 422.00 381.20 L 421.40 382.60 L 420.10 383.10 L 414.50 382.20 Z" fill="#000000" fill-rule="nonzero" group-id="1" node-id="63" stroke="none" target-height="30.799988" target-width="12.299988" target-x="409.7" target-y="378.1"></path><path d="M 371.70 398.00 L 370.50 397.80 L 368.90 397.10 L 368.30 395.50 L 368.50 394.60 L 369.10 394.00 L 370.80 393.10 L 369.20 385.90 L 369.30 383.70 L 370.00 382.70 L 371.90 381.70 L 375.10 381.60 L 378.10 382.80 L 379.00 383.70 L 379.60 384.90 L 379.90 386.60 L 379.60 389.20 L 378.80 390.90 L 376.10 394.50 L 375.80 395.70 L 376.80 400.30 L 377.10 403.60 L 376.60 404.30 L 375.10 404.90 L 374.20 404.70 L 373.50 404.10 L 372.90 403.00 L 371.70 398.00 Z M 374.30 389.30 L 375.20 388.20 L 375.70 386.80 L 375.50 386.40 L 373.80 385.30 L 374.30 389.30 Z" fill="#000000" fill-rule="nonzero" group-id="1" node-id="65" stroke="none" target-height="23.299988" target-width="11.600006" target-x="368.3" target-y="381.6"></path><path d="M 457.20 390.60 L 455.90 389.80 L 454.80 387.10 L 452.50 376.30 L 449.20 377.30 L 447.80 376.70 L 447.30 375.30 L 448.00 373.70 L 452.30 372.20 L 452.60 368.00 L 453.60 366.80 L 454.40 366.60 L 455.60 366.80 L 456.10 367.50 L 456.40 371.50 L 462.40 370.30 L 464.00 371.00 L 464.60 372.60 L 464.50 373.50 L 463.10 374.50 L 457.20 375.70 L 459.60 388.20 L 459.00 389.90 L 458.30 390.50 L 457.20 390.60 Z" fill="#000000" fill-rule="nonzero" group-id="1" node-id="67" stroke="none" target-height="24" target-width="17.300018" target-x="447.3" target-y="366.6"></path><path d="M 396.90 397.00 L 395.30 385.10 L 395.60 383.80 L 396.70 383.00 L 400.30 381.40 L 401.50 381.20 L 402.90 381.50 L 404.00 382.30 L 404.80 383.40 L 405.10 384.80 L 404.90 386.00 L 402.60 390.60 L 404.80 391.50 L 408.70 391.90 L 409.40 392.40 L 410.10 393.90 L 409.80 395.10 L 409.10 395.70 L 407.60 396.10 L 404.10 395.80 L 401.10 395.10 L 401.90 398.40 L 401.70 399.20 L 401.30 399.90 L 399.80 400.50 L 398.70 400.20 L 398.00 399.30 L 396.80 396.90 Z" fill="#000000" fill-rule="nonzero" group-id="1" node-id="69" stroke="none" target-height="19.299988" target-width="14.800018" target-x="395.3" target-y="381.2"></path><path d="M 429.40 387.20 L 430.30 389.30 L 430.80 389.80 L 432.50 389.80 L 435.20 388.80 L 436.50 389.40 L 437.10 390.70 L 436.50 392.30 L 435.70 393.10 L 433.30 394.20 L 430.30 394.30 L 428.10 393.30 L 427.20 392.40 L 424.00 386.00 L 423.80 385.10 L 424.30 382.40 L 423.50 377.50 L 423.90 376.40 L 424.80 375.50 L 427.40 374.60 L 431.50 374.60 L 433.30 375.50 L 433.80 376.70 L 433.60 377.50 L 432.50 378.50 L 428.10 378.60 L 428.30 383.00 L 432.60 382.80 L 433.60 383.30 L 434.10 384.60 L 433.90 385.60 L 433.20 386.20 L 429.40 387.20 Z" fill="#000000" fill-rule="nonzero" group-id="1" node-id="71" stroke="none" target-height="19.699982" target-width="13.600006" target-x="423.5" target-y="374.6"></path><path d="M 396.80 396.90 L 396.30 399.70 L 394.70 401.20 L 393.60 401.70 L 392.30 401.80 L 389.90 401.50 L 388.00 400.80 L 386.50 399.60 L 384.20 396.10 L 383.40 393.90 L 382.70 390.50 L 382.50 386.80 L 383.20 385.20 L 384.20 384.30 L 386.80 383.30 L 388.50 383.10 L 391.40 383.60 L 392.70 384.50 L 392.90 385.50 L 392.80 386.30 L 391.60 387.30 L 388.80 387.20 L 387.50 387.40 L 386.90 387.90 L 386.70 388.70 L 387.30 391.10 L 391.30 390.40 L 392.10 390.50 L 393.20 391.50 L 393.20 393.10 L 392.60 393.70 L 388.80 395.10 L 389.70 396.50 L 390.60 397.10 L 391.50 397.40 L 394.80 396.20 L 396.90 397.00 Z" fill="#000000" fill-rule="nonzero" group-id="1" node-id="73" stroke="none" target-height="18.699982" target-width="14.399994" target-x="382.5" target-y="383.1"></path><path d="M 442.00 379.20 L 441.50 380.80 L 441.50 384.10 L 441.80 385.40 L 442.90 387.30 L 444.50 388.00 L 445.40 387.80 L 448.10 386.20 L 448.90 386.10 L 449.60 386.20 L 450.60 387.20 L 450.70 388.80 L 450.10 389.80 L 448.00 391.60 L 446.50 392.10 L 444.80 392.40 L 441.50 391.70 L 440.30 390.90 L 438.90 389.30 L 437.80 387.30 L 437.20 385.10 L 437.10 382.90 L 437.60 379.40 L 438.30 377.40 L 440.30 374.90 L 442.80 374.10 L 443.80 374.30 L 445.20 375.60 L 445.50 376.70 L 445.30 377.60 L 444.20 378.60 L 442.00 379.20 Z" fill="#000000" fill-rule="nonzero" group-id="1" node-id="75" stroke="none" target-height="18.299988" target-width="13.600006" target-x="437.1" target-y="374.1"></path></g><path d="M 895.20 339.40 L 892.40 350.00 L 890.60 354.60 L 886.30 363.30 L 880.30 372.20 L 876.80 376.30 L 870.50 382.50 L 875.60 393.50 L 881.50 403.20 L 887.80 410.70 L 894.00 416.40 L 895.10 417.80 L 895.40 418.90 L 895.20 420.70 L 894.60 421.90 L 893.80 422.90 L 892.10 423.90 L 888.20 424.80 L 879.50 424.50 L 874.30 423.60 L 869.40 422.20 L 864.80 420.40 L 856.80 416.00 L 851.40 412.20 L 847.20 408.50 L 838.30 400.20 L 837.30 399.70 L 825.50 401.30 L 814.60 401.20 L 808.40 400.40 L 802.50 399.10 L 796.80 397.40 L 791.20 395.20 L 786.00 392.70 L 781.00 389.70 L 776.30 386.40 L 771.90 382.60 L 767.70 378.60 L 764.00 374.40 L 760.50 369.80 L 757.40 364.90 L 754.60 359.90 L 752.30 354.60 L 750.30 349.10 L 748.80 343.60 L 747.60 337.80 L 747.00 332.00 L 746.70 326.00 L 747.10 319.20 L 748.00 312.50 L 749.50 306.00 L 751.50 299.70 L 754.10 293.60 L 757.20 287.70 L 760.70 282.20 L 764.80 276.90 L 769.30 272.00 L 774.20 267.50 L 779.60 263.40 L 785.40 259.70 L 778.10 250.50 L 769.00 240.00 L 759.70 229.80 L 751.60 221.70 L 746.40 217.30 L 712.00 248.70 L 710.90 249.50 L 708.90 250.00 L 707.30 249.70 L 705.90 248.80 L 705.10 247.50 L 704.70 245.80 L 705.00 244.80 L 708.10 240.90 L 733.90 217.30 L 739.80 211.60 L 738.20 209.90 L 734.10 206.70 L 729.20 203.40 L 722.00 199.30 L 714.00 195.20 L 697.00 188.10 L 680.70 182.80 L 672.00 180.60 L 662.70 178.60 L 652.60 176.90 L 642.50 175.60 L 631.70 174.90 L 620.30 174.60 L 608.90 174.80 L 600.20 175.60 L 605.50 216.70 L 605.20 218.30 L 604.30 219.70 L 602.90 220.60 L 601.30 220.90 L 598.90 220.40 L 598.20 219.50 L 596.80 215.10 L 591.80 178.00 L 591.40 176.70 L 582.30 177.80 L 573.50 179.40 L 565.00 181.50 L 556.80 184.20 L 548.80 187.40 L 541.10 191.00 L 533.80 195.00 L 526.70 199.40 L 519.90 204.20 L 513.40 209.40 L 507.20 214.80 L 501.40 220.60 L 495.90 226.70 L 490.70 232.90 L 481.40 246.00 L 473.50 259.80 L 467.10 273.80 L 478.70 276.80 L 504.90 282.30 L 507.40 283.40 L 508.60 284.30 L 509.30 285.40 L 509.50 286.90 L 509.20 288.50 L 508.30 289.90 L 506.90 290.80 L 505.30 291.10 L 462.90 281.70 L 454.60 295.70 L 441.30 316.90 L 427.80 336.50 L 422.40 343.70 L 437.10 344.60 L 449.60 346.70 L 455.60 348.40 L 461.00 350.30 L 465.80 352.40 L 470.00 354.70 L 474.10 357.50 L 477.60 360.40 L 480.50 363.40 L 482.90 366.40 L 484.90 369.90 L 486.30 373.30 L 487.10 376.90 L 487.40 380.60 L 487.20 384.00 L 486.40 387.40 L 485.20 390.90 L 483.30 394.40 L 481.20 397.70 L 475.40 404.20 L 471.70 407.50 L 463.40 413.20 L 458.60 415.80 L 447.70 420.60 L 441.90 422.60 L 428.60 425.90 L 414.60 428.00 L 407.00 428.50 L 398.90 428.80 L 391.20 428.50 L 379.10 427.10 L 373.70 425.90 L 365.20 423.20 L 360.90 430.20 L 356.30 438.30 L 352.00 447.00 L 347.80 456.60 L 344.10 466.50 L 340.70 476.90 L 338.70 483.90 L 335.70 498.20 L 334.10 512.50 L 334.00 526.10 L 334.40 529.70 L 376.60 519.90 L 378.20 520.20 L 379.60 521.10 L 380.50 522.50 L 380.80 524.10 L 380.30 526.30 L 379.50 527.10 L 375.00 528.80 L 334.80 538.40 L 335.10 545.30 L 335.70 551.10 L 336.90 557.00 L 339.20 565.70 L 342.00 574.10 L 345.40 582.40 L 348.80 589.90 L 355.70 602.90 L 361.20 612.00 L 371.00 604.50 L 381.00 597.90 L 456.00 555.20 L 470.50 546.10 L 476.00 542.20 L 483.50 536.10 L 489.00 531.20 L 493.60 526.20 L 496.70 522.30 L 502.50 513.40 L 504.40 511.10 L 506.20 510.50 L 507.20 510.60 L 511.20 512.80 L 506.00 504.00 L 500.40 492.10 L 497.30 484.20 L 491.90 468.30 L 487.70 453.80 L 484.20 438.90 L 484.20 435.30 L 485.40 431.00 L 486.50 429.30 L 487.40 428.50 L 490.00 427.80 L 491.60 428.00 L 497.10 430.80 L 500.60 433.20 L 503.70 435.80 L 506.40 438.60 L 511.00 444.50 L 513.90 449.10 L 522.50 465.70 L 524.50 468.70 L 523.00 451.00 L 521.90 432.90 L 520.90 404.10 L 521.20 399.30 L 522.50 391.50 L 523.80 387.90 L 525.10 385.20 L 526.60 383.10 L 528.50 381.40 L 530.30 380.40 L 532.20 380.10 L 534.70 380.30 L 536.80 381.00 L 538.40 382.10 L 540.60 384.20 L 542.40 386.80 L 545.50 392.50 L 547.10 382.00 L 548.20 378.20 L 550.30 373.70 L 551.70 371.90 L 553.30 370.50 L 555.20 369.60 L 557.40 369.30 L 562.30 370.00 L 566.00 371.90 L 568.10 373.70 L 570.00 376.00 L 571.60 378.60 L 573.50 383.00 L 575.00 387.90 L 577.30 398.10 L 581.80 392.30 L 583.60 390.70 L 585.70 389.50 L 588.20 388.60 L 587.00 380.20 L 585.90 368.50 L 586.00 359.70 L 586.50 355.60 L 587.30 352.50 L 588.50 349.50 L 589.90 347.20 L 591.50 345.60 L 593.40 344.50 L 595.50 343.80 L 597.90 343.50 L 600.10 343.90 L 602.10 344.80 L 604.00 346.30 L 607.00 350.50 L 610.20 357.60 L 616.50 377.80 L 616.20 356.50 L 616.40 350.40 L 617.50 341.20 L 619.70 333.90 L 622.40 329.10 L 625.20 326.30 L 626.70 325.40 L 629.40 324.80 L 631.30 325.10 L 633.00 325.90 L 634.50 327.30 L 635.90 329.40 L 637.30 332.50 L 638.70 336.70 L 641.50 351.10 L 645.10 374.20 L 647.60 388.10 L 648.10 388.00 L 647.10 375.80 L 647.20 365.30 L 648.50 355.40 L 650.70 347.00 L 654.30 339.60 L 656.40 336.60 L 658.70 334.20 L 660.50 332.70 L 663.20 331.60 L 664.50 331.80 L 665.70 332.60 L 667.00 334.10 L 669.10 338.70 L 670.40 342.80 L 674.20 359.60 L 686.20 425.00 L 689.40 422.50 L 710.50 404.40 L 714.90 401.10 L 719.00 398.70 L 724.20 396.70 L 726.40 396.40 L 728.80 396.80 L 730.80 397.60 L 732.50 399.00 L 733.80 400.80 L 734.60 402.90 L 734.80 405.30 L 734.10 409.10 L 733.30 411.30 L 729.20 418.10 L 715.00 436.90 L 712.70 440.70 L 709.60 447.40 L 707.90 453.50 L 707.30 458.00 L 706.50 472.30 L 705.90 477.70 L 704.70 484.30 L 702.00 493.80 L 699.80 499.70 L 704.40 503.40 L 711.60 511.50 L 718.40 517.40 L 730.80 527.00 L 750.70 541.50 L 780.00 562.30 L 820.80 590.50 L 842.40 571.70 L 853.00 562.00 L 863.40 551.90 L 829.20 524.90 L 828.40 523.90 L 827.80 521.80 L 828.20 520.20 L 829.00 518.90 L 830.40 518.00 L 832.00 517.70 L 835.20 519.10 L 869.40 545.60 L 876.80 537.40 L 883.40 529.50 L 889.20 521.90 L 899.40 506.80 L 903.40 499.90 L 910.40 486.30 L 916.30 471.80 L 918.40 464.90 L 920.00 458.50 L 920.70 454.30 L 873.60 461.70 L 872.50 461.60 L 870.60 460.50 L 869.50 458.60 L 869.50 456.30 L 870.50 454.60 L 872.10 453.80 L 875.00 452.90 L 909.40 447.40 L 922.40 445.10 L 923.00 438.90 L 923.00 422.30 L 921.40 404.70 L 920.50 398.00 L 919.10 390.30 L 917.20 382.30 L 914.60 373.70 L 912.50 368.00 L 906.90 356.30 L 903.60 350.60 L 899.60 345.00 L 895.20 339.40 Z M 419.50 496.90 L 418.20 498.90 L 413.00 505.00 L 409.50 510.40 L 408.20 513.00 L 407.30 515.60 L 407.00 517.60 L 407.70 522.20 L 407.50 523.20 L 406.10 524.60 L 405.10 524.80 L 403.50 524.40 L 402.20 523.40 L 401.30 522.10 L 400.70 518.70 L 400.10 517.10 L 399.20 515.50 L 397.30 513.40 L 395.00 511.60 L 392.30 510.20 L 386.80 508.40 L 380.50 508.20 L 379.70 507.70 L 379.00 505.90 L 379.30 504.80 L 379.90 503.90 L 386.40 498.60 L 389.30 495.50 L 390.40 492.90 L 391.20 489.80 L 392.30 483.50 L 393.10 482.40 L 394.10 481.60 L 395.50 481.30 L 396.40 481.50 L 397.30 482.20 L 402.00 487.90 L 404.80 490.20 L 407.30 491.60 L 409.80 492.50 L 417.50 493.60 L 419.00 494.60 L 419.50 496.90 Z M 584.60 284.60 L 583.30 286.50 L 582.50 286.90 L 580.30 286.90 L 578.90 287.30 L 577.70 288.10 L 575.30 290.10 L 570.40 296.30 L 568.90 297.00 L 567.90 296.80 L 566.50 295.50 L 566.30 294.50 L 567.00 291.10 L 566.80 289.80 L 565.50 286.60 L 562.20 280.90 L 554.70 273.40 L 554.30 272.30 L 554.40 271.50 L 555.30 270.40 L 556.00 270.00 L 558.10 269.40 L 562.90 268.80 L 566.60 267.70 L 568.80 266.20 L 570.30 264.60 L 574.10 257.90 L 575.00 256.90 L 576.00 256.60 L 577.30 256.80 L 578.00 257.60 L 578.50 258.70 L 581.10 272.40 L 582.70 278.70 L 584.90 282.20 L 585.00 283.00 L 584.60 284.60 Z M 792.80 498.30 L 790.50 499.80 L 787.30 502.70 L 785.70 505.10 L 784.60 507.20 L 782.10 514.00 L 781.30 514.80 L 780.00 515.10 L 778.60 514.70 L 777.50 513.80 L 776.20 512.20 L 774.40 506.00 L 773.40 504.20 L 771.80 502.40 L 769.10 500.10 L 766.20 499.20 L 765.30 498.70 L 764.70 497.90 L 764.40 496.50 L 764.70 495.20 L 765.50 494.30 L 772.90 490.20 L 776.50 486.40 L 778.80 481.80 L 780.50 476.60 L 781.50 475.50 L 783.40 475.50 L 786.00 477.00 L 786.60 477.70 L 787.10 482.30 L 788.30 486.50 L 789.60 489.00 L 794.50 494.40 L 794.80 495.60 L 794.60 496.40 L 793.60 497.80 L 792.80 498.30 Z" fill="#ff5000" fill-rule="nonzero" node-id="78" stroke="none" target-height="437.4" target-width="589" target-x="334" target-y="174.6"></path><path d="M 682.70 633.20 L 669.60 610.30 L 639.70 554.80 L 630.30 538.40 L 628.20 536.20 L 623.80 534.80 L 618.60 531.80 L 611.10 525.30 L 609.10 531.60 L 606.70 537.70 L 603.80 543.70 L 600.50 549.40 L 596.80 554.80 L 592.70 560.00 L 596.80 562.80 L 597.50 563.70 L 597.80 564.70 L 597.40 565.90 L 596.80 566.80 L 592.70 570.00 L 588.90 573.80 L 584.40 579.40 L 577.80 588.50 L 541.30 644.30 L 529.60 661.50 L 512.70 684.70 L 493.70 708.50 L 483.40 720.30 L 472.50 732.00 L 472.00 732.90 L 477.60 742.60 L 483.50 752.00 L 494.40 767.90 L 502.20 777.40 L 505.80 781.20 L 530.90 748.80 L 532.30 747.40 L 533.80 746.60 L 536.30 747.00 L 537.60 747.80 L 538.50 749.20 L 538.90 750.80 L 537.00 754.50 L 512.10 787.20 L 523.20 795.90 L 534.00 802.50 L 541.40 806.10 L 548.60 809.10 L 555.60 811.50 L 562.80 813.50 L 575.90 816.10 L 585.30 817.40 L 607.40 819.60 L 625.00 819.60 L 645.80 816.90 L 660.70 813.80 L 668.50 811.70 L 676.20 809.00 L 683.60 805.80 L 653.30 762.40 L 652.80 760.30 L 653.10 758.70 L 654.00 757.40 L 655.30 756.50 L 657.00 756.10 L 658.10 756.40 L 659.60 757.60 L 665.00 764.10 L 679.20 785.00 L 691.60 802.10 L 696.60 800.30 L 701.60 797.90 L 706.60 794.90 L 711.20 791.40 L 715.80 787.50 L 724.40 778.60 L 732.00 768.80 L 737.10 761.20 L 741.40 753.80 L 745.20 746.30 L 748.10 739.80 L 750.30 733.40 L 751.50 728.70 L 742.10 718.10 L 733.20 707.40 L 716.90 685.90 L 709.50 675.40 L 696.70 656.00 L 682.70 633.20 Z M 622.20 637.30 L 619.90 639.30 L 616.80 642.80 L 615.20 645.40 L 612.90 650.80 L 611.80 651.90 L 610.90 652.10 L 610.00 651.90 L 609.20 651.30 L 606.40 645.70 L 604.90 643.50 L 603.30 641.80 L 598.60 637.80 L 598.30 636.90 L 598.60 636.00 L 599.30 635.00 L 603.40 631.30 L 606.30 627.60 L 608.10 624.10 L 609.80 618.90 L 610.40 618.20 L 611.20 617.90 L 613.00 618.00 L 614.30 619.60 L 615.70 623.90 L 617.90 628.40 L 623.50 634.40 L 623.40 635.70 L 622.20 637.30 Z" fill="#ff5000" fill-rule="nonzero" node-id="80" stroke="none" target-height="294.3" target-width="279.5" target-x="472" target-y="525.3"></path></svg>